<svg width="114" height="114" viewBox="0 0 114 114" fill="none" xmlns="http://www.w3.org/2000/svg">
<rect width="114" height="114" rx="26" fill="#F4F7FF"/>
<path fill-rule="evenodd" clip-rule="evenodd" d="M29.028 55.818C32.2205 52.6255 36.5504 50.832 41.0652 50.832C45.5801 50.832 49.91 52.6255 53.1025 55.818C56.2949 59.0105 58.0885 63.3404 58.0885 67.8553C58.0885 72.3701 56.2949 76.7 53.1025 79.8925C49.91 83.085 45.5801 84.8785 41.0652 84.8785C36.5504 84.8785 32.2205 83.085 29.028 79.8925C25.8355 76.7 24.042 72.3701 24.042 67.8553C24.042 63.3404 25.8355 59.0105 29.028 55.818ZM41.0652 56.6436C38.0917 56.6436 35.24 57.8248 33.1374 59.9274C31.0348 62.03 29.8536 64.8818 29.8536 67.8553C29.8536 70.8288 31.0348 73.6805 33.1374 75.7831C35.24 77.8857 38.0917 79.0669 41.0652 79.0669C44.0387 79.0669 46.8905 77.8857 48.9931 75.7831C51.0956 73.6805 52.2769 70.8288 52.2769 67.8553C52.2769 64.8818 51.0956 62.03 48.9931 59.9274C46.8905 57.8248 44.0387 56.6436 41.0652 56.6436Z" fill="#1476FF"/>
<path fill-rule="evenodd" clip-rule="evenodd" d="M77.8722 35.1579L53.1031 59.927C51.9683 61.0618 50.1284 61.0618 48.9937 59.927C47.8589 58.7922 47.8589 56.9523 48.9937 55.8176L74.1536 30.6576L74.1574 30.6538C75.1439 29.671 76.4797 29.1191 77.8722 29.1191C79.2647 29.1191 80.6005 29.671 81.587 30.6538L81.5908 30.6576L89.1073 38.1742C90.2421 39.309 90.2421 41.1488 89.1073 42.2836C87.9725 43.4184 86.1327 43.4184 84.9979 42.2836L77.8722 35.1579Z" fill="#1476FF"/>
<path fill-rule="evenodd" clip-rule="evenodd" d="M65.8374 38.9732C66.9727 37.8389 68.8125 37.8398 69.9468 38.9751L77.4292 46.4643C78.5634 47.5996 78.5626 49.4394 77.4273 50.5737C76.292 51.708 74.4522 51.7071 73.3179 50.5718L65.8355 43.0826C64.7012 41.9473 64.7021 40.1075 65.8374 38.9732Z" fill="#1476FF"/>
</svg>
